<?xml version="1.0" encoding="UTF-8"?>
<svg width="15px" height="9px" viewBox="0 0 15 9" version="1.1" xmlns="http://www.w3.org/2000/svg" xmlns:xlink="http://www.w3.org/1999/xlink">
    <!-- Generator: Sketch 40 (33762) - http://www.bohemiancoding.com/sketch -->
    <title>Shape</title>
    <desc>Created with Sketch.</desc>
    <defs></defs>
    <g id="Page-1" stroke="none" stroke-width="1" fill="none" fill-rule="evenodd">
        <g id="课程分类" transform="translate(-164.000000, -164.000000)" fill="#C0C0C0">
            <path d="M178.824701,164.176237 C178.71107,164.062589 178.560075,164 178.399527,164 C178.23898,164 178.087968,164.062589 177.974337,164.176237 L171.433222,170.716844 L165.001089,164.285303 C164.890451,164.174361 164.743277,164.113276 164.586702,164.113276 C164.430128,164.113276 164.282953,164.17436 164.172535,164.285067 C164.061389,164.395621 164.000118,164.542693 164,164.699217 C163.999899,164.855995 164.061135,165.003456 164.172366,165.114365 L170.913725,171.856215 C170.940472,171.882995 170.968655,171.898736 170.993491,171.912616 C170.996061,171.914053 170.998648,171.91549 171.001235,171.916944 C171.008539,171.930267 171.018531,171.948239 171.035607,171.96523 C171.148984,172.078642 171.29981,172.141096 171.460273,172.141096 C171.608631,172.141096 171.748755,172.087704 171.85865,171.989982 L171.860222,171.989982 L178.824769,165.025959 C179.058422,164.791715 179.058422,164.410566 178.824701,164.176237 L178.824701,164.176237 Z" id="Shape"></path>
        </g>
    </g>
</svg>