<?xml version="1.0" encoding="UTF-8"?>
<svg width="15px" height="9px" viewBox="0 0 15 9" version="1.1" xmlns="http://www.w3.org/2000/svg" xmlns:xlink="http://www.w3.org/1999/xlink">
    <!-- Generator: Sketch 40 (33762) - http://www.bohemiancoding.com/sketch -->
    <title>Shape</title>
    <desc>Created with Sketch.</desc>
    <defs></defs>
    <g id="Page-1" stroke="none" stroke-width="1" fill="none" fill-rule="evenodd">
        <g id="课程分类" transform="translate(-432.000000, -164.000000)" fill="#565656">
            <path d="M446.399527,164 C446.23898,164 446.087968,164.062589 445.974337,164.176237 L439.433222,170.716844 L433.001089,164.285303 C432.890451,164.174361 432.743277,164.113276 432.586702,164.113276 C432.430128,164.113276 432.282953,164.17436 432.172535,164.285067 C432.061389,164.395621 432.000118,164.542693 432,164.699217 C431.999899,164.855995 432.061135,165.003456 432.172366,165.114365 L438.913725,171.856215 C438.940472,171.882995 438.968655,171.898736 438.993491,171.912616 C439.008539,171.930267 439.018531,171.948239 439.035607,171.96523 C439.148984,172.078642 439.29981,172.141096 439.460273,172.141096 C439.608631,172.141096 439.748755,172.087704 439.85865,171.989982 L446.824769,165.025959 C447.058422,164.791715 447.058422,164.410566 446.824701,164.176237 C446.71107,164.062589 446.560075,164 446.399527,164 Z" id="Shape" transform="translate(439.500000, 168.070548) scale(1, -1) translate(-439.500000, -168.070548) "></path>
        </g>
    </g>
</svg>